<svg width="16" height="16" viewBox="0 0 16 16" xmlns="http://www.w3.org/2000/svg"
   ><path d="m2.165 15.803.02-.004c1.83-.363 2.948-.842 3.468-1.105A9.06 9.06.0 0 0 8 15c4.418.0 8-3.134 8-7s-3.582-7-8-7-8 3.134-8 7c0 1.76.743 3.37 1.97 4.6a10.437 10.437.0 0 1-.524 2.318l-.003.011a10.722 10.722.0 0 1-.244.637c-.079.186.074.394.273.362a21.673 21.673.0 0 0 .693-.125zm.8-3.108a1 1 0 0 0-.287-.801C1.618 10.83 1 9.468 1 8c0-3.192 3.004-6 7-6s7 2.808 7 6c0 3.193-3.004 6-7 6a8.06 8.06.0 0 1-2.088-.272 1 1 0 0 0-.711.074c-.387.196-1.24.57-2.634.893a10.97 10.97.0 0 0 .398-2z"
     /><path style="fill:#fff;stroke-width:.0381406" d="M2.5928924 14.64124C2.6223414 14.56532 2.7579135 14.016237 2.8116668 13.755186 2.8703208 13.470333 2.9536904 12.924698 2.9756781 12.681764 2.9908203 12.514463 2.9499427 12.307751 2.8692185 12.143411 2.8316373 12.066903 2.7459118 11.954877 2.6284312 11.828751 1.7038284 10.836104 1.2016775 9.8164895 1.048045 8.6197855 1.0063812 8.2952494 1.0064137 7.6914319 1.0481116 7.3823922 1.2512655 5.8767371 2.0436169 4.5507509 3.3468415 3.5355077 3.9596604 3.0581071 4.7640519 2.6392168 5.5559689 2.3850952 6.6654993 2.0290534 7.9506208 1.9233806 9.1429471 2.0901456 11.401775 2.4060772 13.334905 3.667656 14.330466 5.4755694c.31516.5723213.531642 1.2369247.621112 1.9068228.03631.2718596.04153.865739.01012 1.1515768-.270462 2.461497-2.278244 4.545061-5.0343656 5.224385-.6728217.165836-1.1178343.217124-1.8987289.21883-.7751426.0017-1.2097959-.04616-1.9070322-.20995-.5110188-.120046-.6363234-.109854-1.0556544.08587-.4615301.215415-.9280166.392202-1.462175.55413-.3078619.09333-.9608092.267384-1.00305.267384-.011976.0-.015274-.01411-.0078-.03337z"
     /><path d="m5 8.0000005a1 1 0 1 1-2 0 1 1 0 0 1 2 0zm4 0a1 1 0 1 1-2 0 1 1 0 0 1 2 0zm3 1A1.0000002 1.0000002.0 1 0 12 7 1.0000003 1.0000003.0 0 0 12 9.0000005z"
     /></svg>