<svg width="16" height="16" viewBox="0 0 16 16" xmlns="http://www.w3.org/2000/svg"><path d="m2.165 15.803.02-.004c1.83-.363 2.948-.842 3.468-1.105A9.06 9.06.0 008 15c4.418.0 8-3.134 8-7s-3.582-7-8-7-8 3.134-8 7c0 1.76.743 3.37 1.97 4.6a10.437 10.437.0 01-.524 2.318l-.003.011a10.722 10.722.0 01-.244.637c-.079.186.074.394.273.362a21.673 21.673.0 00.693-.125zm.8-3.108a1 1 0 00-.287-.801C1.618 10.83 1 9.468 1 8c0-3.192 3.004-6 7-6s7 2.808 7 6c0 3.193-3.004 6-7 6a8.06 8.06.0 01-2.088-.272 1 1 0 00-.711.074c-.387.196-1.24.57-2.634.893a10.97 10.97.0 00.398-2z"/><path style="fill:#fff;stroke-width:.0381406" d="M2.5928924 14.64124c.0294489999999996-.07592.1650211-.625003.2187744-.886054C2.8703208 13.470333 2.9536904 12.924698 2.9756781 12.681764 2.9908203 12.514463 2.9499427 12.307751 2.8692185 12.143411 2.8316373 12.066903 2.7459118 11.954877 2.6284312 11.828751c-.9246028-.992647-1.4267537-2.0122615-1.5803862-3.2089655C1.0063812 8.2952494 1.0064137 7.6914319 1.0481116 7.3823922c.2031539-1.5056551.9955053-2.8316413 2.2987299-3.8468845.6128189-.4774006 1.4172104-.8962909 2.2091274-1.1504125 1.1095304-.3560418 2.3946519-.4617146 3.5869782-.2949496 2.2588279.3159316 4.1919579 1.5775104 5.1875189 3.3854238.31516.5723213.531642 1.2369247.621112 1.9068228.03631.2718596.04153.865739.01012 1.1515768-.270462 2.461497-2.278244 4.545061-5.0343656 5.224385-.6728217.165836-1.1178343.217124-1.8987289.21883-.7751426.0017-1.2097959-.04616-1.9070322-.20995-.5110188-.120046-.6363234-.109854-1.0556544.08587-.4615301.215415-.9280166.392202-1.462175.55413-.3078619.09333-.9608092.267384-1.00305.267384-.011976.0-.015274-.01411-.0078-.03337z"/><path d="m5 8.0000005a1 1 0 11-2 0 1 1 0 012 0zm4 0a1 1 0 11-2 0 1 1 0 012 0zm3 1A1.0000002 1.0000002.0 1012 7a1.0000003 1.0000003.0 000 2.0000005z"/></svg>